<mxfile host="app.diagrams.net" agent="Mozilla/5.0 (X11; Ubuntu; Linux x86_64; rv:131.0) Gecko/20100101 Firefox/131.0" version="24.8.0">
  <diagram name="Page-1" id="2XLtuvglCsjouoK22aqs">
    <mxGraphModel dx="1364" dy="796" grid="1" gridSize="10" guides="1" tooltips="1" connect="1" arrows="1" fold="1" page="1" pageScale="1" pageWidth="850" pageHeight="1100" math="0" shadow="0">
      <root>
        <mxCell id="0" />
        <mxCell id="1" parent="0" />
        <mxCell id="06wf2ehr05H0AcNcDhgb-1" value="rival10_experiments" style="swimlane;whiteSpace=wrap;html=1;" vertex="1" parent="1">
          <mxGeometry x="40" y="40" width="320" height="340" as="geometry" />
        </mxCell>
        <mxCell id="06wf2ehr05H0AcNcDhgb-4" value="text_to_concept_obj" style="whiteSpace=wrap;html=1;" vertex="1" parent="06wf2ehr05H0AcNcDhgb-1">
          <mxGeometry x="20" y="200" width="120" height="40" as="geometry" />
        </mxCell>
        <mxCell id="06wf2ehr05H0AcNcDhgb-6" style="edgeStyle=orthogonalEdgeStyle;rounded=0;orthogonalLoop=1;jettySize=auto;html=1;entryX=1;entryY=0.5;entryDx=0;entryDy=0;" edge="1" parent="06wf2ehr05H0AcNcDhgb-1" source="06wf2ehr05H0AcNcDhgb-2" target="06wf2ehr05H0AcNcDhgb-4">
          <mxGeometry relative="1" as="geometry" />
        </mxCell>
        <mxCell id="06wf2ehr05H0AcNcDhgb-2" value="learn_CLIP_aligner" style="whiteSpace=wrap;html=1;" vertex="1" parent="06wf2ehr05H0AcNcDhgb-1">
          <mxGeometry x="180" y="200" width="120" height="40" as="geometry" />
        </mxCell>
        <mxCell id="06wf2ehr05H0AcNcDhgb-10" style="rounded=0;orthogonalLoop=1;jettySize=auto;html=1;exitX=1;exitY=1;exitDx=0;exitDy=0;entryX=0;entryY=0;entryDx=0;entryDy=0;strokeColor=#67AB9F;" edge="1" parent="06wf2ehr05H0AcNcDhgb-1" source="06wf2ehr05H0AcNcDhgb-7" target="06wf2ehr05H0AcNcDhgb-2">
          <mxGeometry relative="1" as="geometry" />
        </mxCell>
        <mxCell id="06wf2ehr05H0AcNcDhgb-7" value="model" style="whiteSpace=wrap;html=1;" vertex="1" parent="06wf2ehr05H0AcNcDhgb-1">
          <mxGeometry x="20" y="120" width="120" height="40" as="geometry" />
        </mxCell>
        <mxCell id="06wf2ehr05H0AcNcDhgb-8" style="edgeStyle=orthogonalEdgeStyle;rounded=0;orthogonalLoop=1;jettySize=auto;html=1;entryX=1;entryY=0.5;entryDx=0;entryDy=0;" edge="1" parent="06wf2ehr05H0AcNcDhgb-1" source="06wf2ehr05H0AcNcDhgb-9" target="06wf2ehr05H0AcNcDhgb-7">
          <mxGeometry relative="1" as="geometry" />
        </mxCell>
        <mxCell id="06wf2ehr05H0AcNcDhgb-9" value="get_rival10_model" style="whiteSpace=wrap;html=1;" vertex="1" parent="06wf2ehr05H0AcNcDhgb-1">
          <mxGeometry x="180" y="120" width="120" height="40" as="geometry" />
        </mxCell>
        <mxCell id="06wf2ehr05H0AcNcDhgb-14" style="rounded=0;orthogonalLoop=1;jettySize=auto;html=1;exitX=1;exitY=1;exitDx=0;exitDy=0;entryX=0;entryY=0;entryDx=0;entryDy=0;strokeColor=#67AB9F;" edge="1" parent="06wf2ehr05H0AcNcDhgb-1" source="06wf2ehr05H0AcNcDhgb-11" target="06wf2ehr05H0AcNcDhgb-2">
          <mxGeometry relative="1" as="geometry" />
        </mxCell>
        <mxCell id="06wf2ehr05H0AcNcDhgb-11" value="train_data" style="whiteSpace=wrap;html=1;" vertex="1" parent="06wf2ehr05H0AcNcDhgb-1">
          <mxGeometry x="20" y="40" width="120" height="40" as="geometry" />
        </mxCell>
        <mxCell id="06wf2ehr05H0AcNcDhgb-12" style="edgeStyle=orthogonalEdgeStyle;rounded=0;orthogonalLoop=1;jettySize=auto;html=1;entryX=1;entryY=0.5;entryDx=0;entryDy=0;" edge="1" parent="06wf2ehr05H0AcNcDhgb-1" source="06wf2ehr05H0AcNcDhgb-13" target="06wf2ehr05H0AcNcDhgb-11">
          <mxGeometry relative="1" as="geometry" />
        </mxCell>
        <mxCell id="06wf2ehr05H0AcNcDhgb-13" value="RIVAL10Data" style="whiteSpace=wrap;html=1;" vertex="1" parent="06wf2ehr05H0AcNcDhgb-1">
          <mxGeometry x="180" y="40" width="120" height="40" as="geometry" />
        </mxCell>
        <mxCell id="06wf2ehr05H0AcNcDhgb-15" value="&lt;div&gt;rival10&lt;/div&gt;" style="swimlane;whiteSpace=wrap;html=1;" vertex="1" parent="1">
          <mxGeometry x="400" y="40" width="200" height="100" as="geometry" />
        </mxCell>
        <mxCell id="06wf2ehr05H0AcNcDhgb-16" value="RIVAL10" style="whiteSpace=wrap;html=1;" vertex="1" parent="06wf2ehr05H0AcNcDhgb-15">
          <mxGeometry x="40" y="40" width="120" height="40" as="geometry" />
        </mxCell>
        <mxCell id="06wf2ehr05H0AcNcDhgb-17" style="rounded=0;orthogonalLoop=1;jettySize=auto;html=1;exitX=0;exitY=0.5;exitDx=0;exitDy=0;entryX=1;entryY=0.5;entryDx=0;entryDy=0;strokeColor=#67AB9F;" edge="1" parent="1" source="06wf2ehr05H0AcNcDhgb-16" target="06wf2ehr05H0AcNcDhgb-13">
          <mxGeometry relative="1" as="geometry">
            <mxPoint x="190" y="130" as="sourcePoint" />
            <mxPoint x="230" y="250" as="targetPoint" />
          </mxGeometry>
        </mxCell>
      </root>
    </mxGraphModel>
  </diagram>
</mxfile>
